<svg id="Layer_1" data-name="Layer 1" xmlns="http://www.w3.org/2000/svg" xmlns:xlink="http://www.w3.org/1999/xlink" viewBox="0 0 1019.13 273.34"><defs><style>.cls-1{fill:#91181d;}.cls-2{fill:#f48131;}.cls-3{fill:url(#linear-gradient);}.cls-4{fill:#f4b331;}.cls-5{fill:#fff;opacity:0.3;}</style><linearGradient id="linear-gradient" x1="82.77" y1="-28.79" x2="188.36" y2="285.61" gradientTransform="translate(135.45 -57.91) rotate(45)" gradientUnits="userSpaceOnUse"><stop offset="0" stop-color="#f46531"/><stop offset="0.07" stop-color="#f46e31"/><stop offset="0.2" stop-color="#f48631"/><stop offset="0.35" stop-color="#f4ad31"/><stop offset="0.37" stop-color="#f4b331"/><stop offset="0.74" stop-color="#f4b331"/><stop offset="1" stop-color="#f4e795"/></linearGradient></defs><title>score-board</title><rect class="cls-1" x="120.77" y="62.03" width="870.17" height="156.95" rx="37.93"/><path class="cls-2" d="M953,223.74H158.7A42.74,42.74,0,0,1,116,181.05V100A42.74,42.74,0,0,1,158.7,57.26H953A42.74,42.74,0,0,1,995.71,100v81.1A42.74,42.74,0,0,1,953,223.74ZM158.7,66.79A33.2,33.2,0,0,0,125.54,100v81.1a33.2,33.2,0,0,0,33.16,33.16H953a33.2,33.2,0,0,0,33.16-33.16V100A33.2,33.2,0,0,0,953,66.79Z"/><circle class="cls-1" cx="141.02" cy="136.67" r="117.61" transform="translate(-55.34 139.75) rotate(-45)"/><path class="cls-1" d="M247.15,138.5A105.58,105.58,0,1,1,141.57,32.92h1.32A105.54,105.54,0,0,1,247.15,138.5Z"/><circle class="cls-3" cx="137.62" cy="134.55" r="101.63" transform="translate(-54.83 136.72) rotate(-45)"/><circle class="cls-1" cx="137.62" cy="134.55" r="82.37"/><circle class="cls-4" cx="141.02" cy="137.95" r="77.53"/><path class="cls-5" d="M168,36.25,60.7,206.37a105.48,105.48,0,0,1-13.83-21.16l96-152.28A105.16,105.16,0,0,1,168,36.25Z"/><path class="cls-5" d="M193.62,46.62,81.11,225.06A106.14,106.14,0,0,1,72,217.94L183.29,41.48A104.54,104.54,0,0,1,193.62,46.62Z"/></svg>