<svg id="Layer_1" data-name="Layer 1" xmlns="http://www.w3.org/2000/svg" viewBox="0 0 450 450"><defs><style>.cls-1{fill:#7b9ab9;}.cls-2{fill:#ffbc36;}.cls-3{fill:#f4a800;}.cls-4{fill:#fd6220;}.cls-5{fill:#dd3900;}.cls-6{fill:#fff;}.cls-7{fill:#cedbe1;}.cls-8{fill:#fce466;}.cls-9{fill:#fed51b;}.cls-10{fill:#beced3;}.cls-11{fill:#90b2bf;}.cls-12{fill:#7d9faa;}.cls-13{fill:#688d96;}.cls-14{fill:#e6ecef;}.cls-15{fill:#b1ccdf;}.cls-16{fill:#abc5d2;}.cls-17{fill:#c0e1f0;}.cls-18{fill:#fba83e;}.cls-19{fill:#f7e3b0;}.cls-20{fill:#f27b37;}.cls-21{fill:#00db05;}.cls-22{fill:#00ba00;}.cls-23{fill:#7c9e4a;}.cls-24{fill:#4e6b33;}.cls-25{fill:#b1d664;}.cls-26{fill:#f36362;}.cls-27{fill:#3f3f3f;}.cls-28{fill:red;}.cls-29{fill:#d00;}.cls-30{fill:#fcbf31;}.cls-31{fill:#9768d2;}.cls-32{fill:#763f9c;}.cls-33{fill:#64348a;}.cls-34{fill:#caabe4;}.cls-35{fill:#ffb92b;}.cls-36{fill:#fff9bd;}.cls-37{fill:#538cb7;}.cls-38{fill:#ff8f8f;}</style></defs><title>slot-machine</title><rect class="cls-1" x="357.4" y="257.75" width="44.12" height="24.1"/><path class="cls-2" d="M177.06,76.52a5.57,5.57,0,0,1-5.57,5.57H135a5.57,5.57,0,0,1-5.57-5.57h0A5.57,5.57,0,0,1,135,70.94h36.49a5.57,5.57,0,0,1,5.57,5.58Z"/><path class="cls-3" d="M129.43,76.52A5.57,5.57,0,0,0,135,82.09h36.49a5.57,5.57,0,0,0,5.57-5.57Z"/><path class="cls-4" d="M153.28,34.27c-10,0-18.79,7.94-18.79,17V70.94h37.59V51.25C172.08,42.21,163.3,34.27,153.28,34.27Z"/><path class="cls-4" d="M154,21.73a.71.71,0,0,1-.71.71h0a.71.71,0,0,1-.72-.71V11.56a.71.71,0,0,1,.72-.71h0a.71.71,0,0,1,.71.71Z"/><path class="cls-4" d="M181.1,50.28a.72.72,0,0,1-.72-.72h0a.71.71,0,0,1,.72-.71h10.17a.71.71,0,0,1,.71.71h0a.71.71,0,0,1-.71.72Z"/><path class="cls-4" d="M115.26,50.28a.71.71,0,0,1-.71-.72h0a.71.71,0,0,1,.71-.71h10.17a.71.71,0,0,1,.72.71h0a.72.72,0,0,1-.72.72Z"/><path class="cls-4" d="M173.45,30.39a.71.71,0,0,1-1,0h0a.71.71,0,0,1,0-1l7.19-7.19a.71.71,0,0,1,1,0h0a.71.71,0,0,1,0,1Z"/><path class="cls-4" d="M125.89,23.2a.71.71,0,0,1,0-1h0a.71.71,0,0,1,1,0l7.19,7.19a.71.71,0,0,1,0,1h0a.73.73,0,0,1-1,0Z"/><path class="cls-5" d="M153.28,34.27V37.9c8.68,0,15.17,7.05,15.17,13.35V67.31H153.28v3.63h18.8V51.25C172.08,42.21,163.3,34.27,153.28,34.27Z"/><path class="cls-6" d="M144.81,67.31h-3.28V51.25c0-4.39,1.42-9.29,4.74-11.69a8.81,8.81,0,0,1,2.9-1.1c-2.61,2.83-4.36,7.81-4.36,12.79Z"/><rect class="cls-1" x="107.22" y="76.35" width="91.12" height="14.85"/><rect class="cls-7" x="132.76" y="76.35" width="40.02" height="14.85"/><rect class="cls-7" x="107.22" y="76.35" width="91.12" height="1.77"/><rect class="cls-7" x="107.22" y="89.43" width="91.12" height="1.77"/><rect class="cls-1" x="111.46" y="91.12" width="82.63" height="3.19"/><path class="cls-2" d="M322.82,76.52a5.57,5.57,0,0,1-5.57,5.57H280.76a5.57,5.57,0,0,1-5.58-5.57h0a5.58,5.58,0,0,1,5.58-5.58h36.49a5.58,5.58,0,0,1,5.57,5.58Z"/><path class="cls-3" d="M275.18,76.52a5.57,5.57,0,0,0,5.58,5.57h36.49a5.57,5.57,0,0,0,5.57-5.57Z"/><path class="cls-8" d="M299,34.27c-10,0-18.8,7.94-18.8,17V70.94h37.59V51.25C317.83,42.21,309.05,34.27,299,34.27Z"/><path class="cls-9" d="M299.73,21.73a.71.71,0,0,1-.71.71h0a.71.71,0,0,1-.72-.71V11.56a.71.71,0,0,1,.72-.71h0a.71.71,0,0,1,.71.71Z"/><path class="cls-9" d="M326.85,50.28a.72.72,0,0,1-.72-.72h0a.72.72,0,0,1,.72-.71H337a.71.71,0,0,1,.72.71h0a.72.72,0,0,1-.72.72Z"/><path class="cls-9" d="M261,50.28a.71.71,0,0,1-.71-.72h0a.71.71,0,0,1,.71-.71h10.18a.71.71,0,0,1,.71.71h0a.71.71,0,0,1-.71.72Z"/><path class="cls-9" d="M319.21,30.39a.72.72,0,0,1-1,0h0a.71.71,0,0,1,0-1l7.19-7.19a.72.72,0,0,1,1,0h0a.73.73,0,0,1,0,1Z"/><path class="cls-9" d="M271.64,23.2a.71.71,0,0,1,0-1h0a.71.71,0,0,1,1,0l7.19,7.19a.71.71,0,0,1,0,1h0a.73.73,0,0,1-1,0Z"/><path class="cls-9" d="M299,34.27V37.9c8.68,0,15.16,7.05,15.16,13.35V67.31H299v3.63h18.79V51.25C317.83,42.21,309.05,34.27,299,34.27Z"/><path class="cls-6" d="M290.56,67.31h-3.28V51.25c0-4.39,1.43-9.29,4.75-11.69a8.68,8.68,0,0,1,2.89-1.1c-2.61,2.83-4.36,7.81-4.36,12.79Z"/><rect class="cls-1" x="252.97" y="76.35" width="91.12" height="14.85"/><rect class="cls-7" x="278.52" y="76.35" width="40.02" height="14.85"/><rect class="cls-7" x="252.97" y="76.35" width="91.12" height="1.77"/><rect class="cls-7" x="252.97" y="89.43" width="91.12" height="1.77"/><rect class="cls-1" x="257.21" y="91.12" width="82.63" height="3.19"/><rect class="cls-7" x="188.33" y="362.55" width="73.01" height="8.18"/><rect class="cls-6" x="210.02" y="362.55" width="29.64" height="8.18"/><rect class="cls-7" x="98.85" y="232.53" width="251.97" height="199.55"/><rect class="cls-10" x="98.85" y="357.14" width="251.97" height="14.25"/><rect class="cls-11" x="109.98" y="249.37" width="229.72" height="170.45"/><rect class="cls-12" x="118.64" y="249.37" width="212.39" height="160.32"/><path class="cls-13" d="M293.73,400.77a7.21,7.21,0,0,1-7.21,7.21h-122a7.21,7.21,0,0,1-7.21-7.21h0a7.21,7.21,0,0,1,7.21-7.21h122a7.21,7.21,0,0,1,7.21,7.21Z"/><rect class="cls-13" x="188.33" y="354.37" width="73.01" height="16.36"/><rect class="cls-7" x="188.33" y="362.55" width="73.01" height="8.18"/><rect class="cls-6" x="210.02" y="362.55" width="29.64" height="8.18"/><rect class="cls-7" x="98.85" y="92.79" width="251.97" height="191.92"/><rect class="cls-10" x="98.85" y="145.84" width="251.97" height="14.25"/><rect class="cls-11" x="109.98" y="105.05" width="229.72" height="162.82"/><rect class="cls-12" x="118.64" y="140.94" width="212.39" height="126.93"/><polygon class="cls-8" points="150.17 110.74 150.17 117.35 146.19 117.35 146.21 143.18 142.09 147.37 126.63 147.37 122.53 143.18 122.53 136.91 128.59 136.91 128.59 141.14 140.15 141.14 140.13 117.35 136.16 117.35 136.15 110.74 150.17 110.74"/><polygon class="cls-8" points="236.45 110.74 224.13 129.45 236.47 147.37 229.32 147.37 220.65 136.21 220.66 147.37 214.73 147.37 214.71 110.74 220.64 110.74 220.65 122.71 229.3 110.74 236.45 110.74"/><path class="cls-8" d="M262.15,110.78l4.28,4.37v15l-3.94,4H248.21v13.21h-6.4l0-36.59Zm-2.1,16.85V117.35H248.2v10.28Z"/><path class="cls-8" d="M292.23,110.78l4.14,4.21V143.2l-4.13,4.17H276.72l-4.13-4.17,0-28.21,4.13-4.21Zm-2,30.36V117.35h-11.6v23.79Z"/><polygon class="cls-8" points="327.14 110.79 327.15 117.35 318.03 117.35 318.04 147.37 311.65 147.37 311.63 117.35 302.52 117.35 302.52 110.79 327.14 110.79"/><path class="cls-8" d="M174.59,110.74,178.8,115l0,32.34h-6.25V133.7H160.84v13.67H154.6V115l4.21-4.29Zm-2,16.59v-10H160.84v10Z"/><polygon class="cls-8" points="204.95 110.74 209.16 115.03 209.16 121.47 202.92 121.47 202.92 117.35 191.19 117.35 191.21 141.14 202.93 141.14 202.93 136.64 209.17 136.64 209.18 143.08 204.97 147.37 189.17 147.37 184.96 143.08 184.95 115.03 189.15 110.74 204.95 110.74"/><path class="cls-9" d="M142.73,148.89H126l-5-5.08v-8.43h9.11v4.24h8.51V118.88h-4v-9.67h17.06v9.67h-4v24.93Zm-15.45-3h14.17l3.23-3.28,0-26.74h4v-3.56h-11v3.56h4l0,26.85H127.06v-4.23h-3v4.12Z"/><path class="cls-9" d="M239.37,148.89h-10.8l-6.39-8.23v8.23h-9V109.21h9V118l6.35-8.79h10.76L226,129.44Zm-9.3-3h3.49l-11.27-16.37,11.33-17.21h-3.54l-11,15.17V112.26h-2.87l0,33.58h2.87V131.75Z"/><path class="cls-9" d="M249.75,148.89H240.3l0-39.64h22.51l5.17,5.27v16.24l-4.82,4.93h-13.4Zm-6.4-3h3.34V132.63h15.18l3.05-3.11V115.77l-3.39-3.46H243.33Zm18.23-16.68h-14.9V115.82h14.89Zm-11.84-3h8.78v-7.23h-8.79Z"/><path class="cls-9" d="M292.88,148.89h-16.8l-5-5.06V114.37l5-5.12h16.81l5,5.11v29.47Zm-15.53-3h14.26l3.24-3.27v-27l-3.25-3.3H277.34l-3.24,3.3,0,27Zm14.46-3.17H277.16l0-26.85h14.65Zm-11.6-3h8.54V118.88H280.2Z"/><path class="cls-9" d="M319.57,148.89h-9.45v-30H301v-9.62h27.68v9.62h-9.12Zm-6.4-3h3.35l0-30h9.12v-3.51H304.05v3.51h9.11Z"/><path class="cls-9" d="M180.35,148.89h-9.3V135.23h-8.67v13.66h-9.3l0-34.48,5.09-5.2h17.08l5.1,5.2Zm-6.25-3h3.19V115.66l-3.33-3.4H159.44l-3.32,3.4v30.18h3.19V132.17h14.77Zm0-17H159.32v-13h14.78Zm-11.72-3.06H171v-6.92h-8.67Z"/><path class="cls-9" d="M205.61,148.89H188.53l-5.1-5.19V114.41l5.09-5.2h17.08l5.1,5.2V123h-9.3v-4.12h-8.67v20.74h8.67v-4.51h9.3v8.59Zm-15.8-3h14.52l3.32-3.39v-4.29h-3.2v4.51H189.68V115.82h14.77V120h3.2v-4.29l-3.32-3.4H189.79l-3.32,3.4,0,26.79Z"/><path d="M363,361.43H86.64v-208H363ZM125.6,321.26H324.07V194.37H125.6Z"/><path class="cls-7" d="M363,361.43H86.64v-208H363ZM125.6,321.26H324.07V194.37H125.6Z"/><rect class="cls-6" x="142.11" y="208.44" width="167.08" height="97.14"/><rect class="cls-14" x="142.11" y="208.44" width="167.08" height="27.9"/><rect class="cls-14" x="138.78" y="279.19" width="167.08" height="27.9"/><path class="cls-1" d="M134.31,202.69V313.38H314.56V202.69Zm63.18,93.13H151.72V219.18h45.77Zm50,0H201.68V219.18h45.77Zm50,0H251.64V219.18h45.77Z"/><path class="cls-15" d="M125.6,194.37V321.26H324.07V194.37Zm189.45,119H134.81V202.69H315.05Z"/><polygon class="cls-16" points="324.07 194.37 324.07 321.26 346.41 343.6 346.41 171.26 324.07 194.37"/><polygon class="cls-16" points="125.6 321.26 125.6 194.37 103.26 171.26 103.26 343.6 125.6 321.26"/><polygon class="cls-11" points="103.26 171.26 125.6 194.37 324.07 194.37 346.41 171.26 103.26 171.26"/><polygon class="cls-17" points="324.07 321.26 125.6 321.26 103.26 343.6 346.41 343.6 324.07 321.26"/><path class="cls-8" d="M154.09,219.79c2.07,7.71,10.4,13.48,20.39,13.48s18.33-5.77,20.4-13.48Z"/><path class="cls-9" d="M194.66,219.79c-16.35,12.11-33.57,5.74-39.46,2.92,3.16,6.21,10.6,10.56,19.28,10.56,10,0,18.33-5.77,20.4-13.48Z"/><path class="cls-18" d="M191.87,296.27a17.2,17.2,0,0,0-34.05,0Z"/><path class="cls-19" d="M174,290.23a4,4,0,1,1-2.37-5.09A4,4,0,0,1,174,290.23Z"/><path class="cls-20" d="M182.46,286.28a2.9,2.9,0,1,1-1.74-3.72A2.9,2.9,0,0,1,182.46,286.28Z"/><path class="cls-20" d="M190,294.91a.6.6,0,0,1-.77.36.62.62,0,0,1-.36-.78.61.61,0,0,1,.77-.36A.6.6,0,0,1,190,294.91Z"/><path class="cls-20" d="M187,293.79a.6.6,0,0,1-1.13-.41.6.6,0,0,1,.77-.36A.6.6,0,0,1,187,293.79Z"/><path class="cls-20" d="M180.67,294.92a.59.59,0,0,1-.77.36.6.6,0,1,1,.41-1.12A.58.58,0,0,1,180.67,294.92Z"/><path class="cls-20" d="M173.8,283.77a.39.39,0,0,1-.51.24.4.4,0,1,1,.51-.24Z"/><path class="cls-20" d="M165.89,286.54a.4.4,0,1,1-.23-.51A.39.39,0,0,1,165.89,286.54Z"/><path class="cls-20" d="M186.46,288.38a.39.39,0,1,1-.74-.27.38.38,0,0,1,.5-.24A.39.39,0,0,1,186.46,288.38Z"/><path class="cls-20" d="M178.59,290.74a.4.4,0,1,1-.74-.28.38.38,0,0,1,.51-.23A.39.39,0,0,1,178.59,290.74Z"/><path class="cls-20" d="M169.2,295.24a.39.39,0,1,1-.74-.27.41.41,0,0,1,.51-.24A.39.39,0,0,1,169.2,295.24Z"/><path class="cls-20" d="M164.38,293.06a.61.61,0,0,1-.77.36.59.59,0,0,1-.36-.77.6.6,0,1,1,1.13.41Z"/><path class="cls-20" d="M191.12,293.15c-.2-.57-.43-1.13-.69-1.69-.08-.18-.17-.35-.25-.52a1.17,1.17,0,0,0-.66.7,1.2,1.2,0,0,0,.72,1.54A1.16,1.16,0,0,0,191.12,293.15Z"/><path class="cls-21" d="M180.91,282.87l.06.56a1.33,1.33,0,0,0,.61.92l.5.26c.3.16.29.41,0,.55l-.51.23a1.32,1.32,0,0,0-.68.87l-.1.56c-.06.34-.3.4-.53.15l-.38-.42a1.33,1.33,0,0,0-1-.37l-.56.07c-.34.05-.48-.16-.31-.46l.28-.48a1.31,1.31,0,0,0,0-1.11l-.24-.5c-.15-.31,0-.51.34-.44l.55.12a1.36,1.36,0,0,0,1.06-.31l.41-.39C180.64,282.45,180.87,282.53,180.91,282.87Z"/><path class="cls-22" d="M182.08,284.61l-.5-.26L178,285.79c-.17.3,0,.51.31.46l.56-.07a1.33,1.33,0,0,1,1,.37l.38.42c.23.25.47.19.53-.15l.1-.56a1.32,1.32,0,0,1,.68-.87l.51-.23C182.37,285,182.38,284.77,182.08,284.61Z"/><path class="cls-23" d="M259,219.79c2.63,7.71,13.2,13.48,25.86,13.48V219.79Z"/><path class="cls-24" d="M259.33,219.79c3.13,5.79,13.35,10,25.49,10v-10Z"/><path class="cls-23" d="M260.53,219.79c4.08,3.31,13.42,5.63,24.29,5.63v-5.63Z"/><path class="cls-25" d="M278.23,219.79c.66,7.71,3.31,13.48,6.48,13.48s5.82-5.77,6.48-13.48Z"/><path class="cls-6" d="M279.37,219.79c.6,6.75,2.76,11.76,5.34,11.76s4.74-5,5.34-11.76Z"/><path class="cls-26" d="M280.5,219.79c.52,5.79,2.21,10,4.21,10s3.69-4.25,4.21-10Z"/><path class="cls-27" d="M285.82,227c0,.45-.17.82-.37.82s-.37-.37-.37-.82.17-.83.37-.83S285.82,226.54,285.82,227Z"/><path class="cls-27" d="M282.73,223.14c-.33.32-.7.46-.85.32s0-.52.33-.84.69-.47.84-.32S283.05,222.83,282.73,223.14Z"/><path class="cls-27" d="M286.63,223.55c-.32-.32-.47-.7-.32-.85s.52,0,.84.33.46.69.32.84S287,223.87,286.63,223.55Z"/><path class="cls-28" d="M213.22,219.79c0,2.47,1.12,5.07,4,8,7.42,7.42,20.53,6.33,24.14,2.72,1.91-1.91,3.08-6.07,2.86-10.68Z"/><path class="cls-29" d="M238.35,219.79a15.4,15.4,0,0,1-3,4.67c-2.87,2.87-9.6,5.22-16.11,5,7.57,5.49,18.82,4.29,22.12,1,1.9-1.91,3.07-6.07,2.85-10.68Z"/><path class="cls-29" d="M234.58,223.68l-.45,0a1.79,1.79,0,0,1-1.28-.37,1,1,0,1,1,1.4-1.4,1.84,1.84,0,0,1,.37,1.28Z"/><path class="cls-29" d="M238.56,227.66l-.45,0a1.78,1.78,0,0,1-1.28-.37,1,1,0,1,1,1.4-1.4,1.79,1.79,0,0,1,.37,1.28Z"/><path class="cls-29" d="M222.73,226.9h-.46a1.74,1.74,0,0,1-1.24-.46,1,1,0,0,1,0-1.41l.06-.06a.94.94,0,0,1,.75-.22,1.07,1.07,0,0,1,.71.41,1.79,1.79,0,0,1,.26,1.3Z"/><path class="cls-29" d="M233.72,232.72l-.42.17a1.81,1.81,0,0,1-1.33.05,1,1,0,0,1-.51-1.38,1,1,0,0,1,1.42-.39,1.75,1.75,0,0,1,.73,1.11Z"/><path class="cls-29" d="M226.57,230.78l-.44.13a1.79,1.79,0,0,1-1.33-.08,1,1,0,0,1-.37-1.42,1,1,0,0,1,1.44-.25,1.76,1.76,0,0,1,.63,1.17Z"/><path class="cls-29" d="M231.85,228.89l-.45.06a1.78,1.78,0,0,1-1.3-.31,1,1,0,0,1-.12-1.47h0a1,1,0,0,1,1.47,0,1.76,1.76,0,0,1,.41,1.26Z"/><path class="cls-29" d="M228.55,224.79h-.46a1.72,1.72,0,0,1-1.24-.47,1,1,0,0,1,0-1.4l.07-.06a.91.91,0,0,1,.74-.22,1.07,1.07,0,0,1,.71.41,1.8,1.8,0,0,1,.26,1.3Z"/><path class="cls-29" d="M238.62,231.89l-.45.07a1.73,1.73,0,0,1-1.3-.25,1,1,0,0,1-.2-1.45l.07-.07a1,1,0,0,1,1.4,0,1.77,1.77,0,0,1,.47,1.24Z"/><path class="cls-29" d="M217.25,224l-.4-.21a1.79,1.79,0,0,1-.89-1,1,1,0,0,1,.72-1.27,1,1,0,0,1,.73.11,1.16,1.16,0,0,1,.48.71,1.75,1.75,0,0,1-.37,1.28Z"/><path class="cls-29" d="M243.61,222.83l-.43-.11a1.87,1.87,0,0,1-1.11-.74,1,1,0,0,1,.39-1.41,1,1,0,0,1,1.37.5,1.82,1.82,0,0,1,0,1.33Z"/><path class="cls-29" d="M242.79,227.72h-.46a1.79,1.79,0,0,1-1.24-.48,1,1,0,0,1,0-1.4l.07-.06a1,1,0,0,1,1.45.19,1.78,1.78,0,0,1,.25,1.3Z"/><path class="cls-30" d="M233.88,222.33a1.37,1.37,0,0,1,.21.86,1.34,1.34,0,0,1-.87-.21.47.47,0,1,1,.66-.65Z"/><path class="cls-30" d="M237.86,226.3a1.41,1.41,0,0,1,.21.87,1.34,1.34,0,0,1-.87-.21.47.47,0,1,1,.66-.66Z"/><path class="cls-30" d="M223,220.22a1.36,1.36,0,0,1-.11.89s-.58-.18-.73-.51a.48.48,0,0,1,.2-.7C222.57,219.8,222.83,219.89,223,220.22Z"/><path class="cls-30" d="M222.13,225.49c.24.27.14.88.14.88s-.61,0-.84-.28a.48.48,0,0,1,0-.72A.47.47,0,0,1,222.13,225.49Z"/><path class="cls-30" d="M232.63,231.64c.33.17.47.76.47.76a1.38,1.38,0,0,1-.89.07.49.49,0,0,1-.28-.67A.49.49,0,0,1,232.63,231.64Z"/><path class="cls-30" d="M225.59,229.6c.3.2.39.8.39.8a1.32,1.32,0,0,1-.89,0,.47.47,0,0,1-.21-.69A.48.48,0,0,1,225.59,229.6Z"/><path class="cls-30" d="M231.09,227.57c.27.24.24.86.24.86a1.4,1.4,0,0,1-.87-.18.48.48,0,0,1-.09-.72A.48.48,0,0,1,231.09,227.57Z"/><path class="cls-30" d="M228,223.38a1.34,1.34,0,0,1,.15.88,1.41,1.41,0,0,1-.85-.28.48.48,0,0,1,0-.72A.46.46,0,0,1,228,223.38Z"/><path class="cls-30" d="M237.8,230.6c.28.23.29.84.29.84s-.61.1-.88-.14a.47.47,0,1,1,.59-.7Z"/><path class="cls-30" d="M217.37,222.43c.09.35-.28.85-.28.85s-.54-.29-.62-.64a.48.48,0,0,1,.32-.64C217.05,221.94,217.29,222.08,217.37,222.43Z"/><path class="cls-30" d="M242.54,221.73c.17.33.76.47.76.47a1.36,1.36,0,0,0,.07-.88.48.48,0,0,0-.67-.28C242.47,221.15,242.38,221.41,242.54,221.73Z"/><path class="cls-30" d="M241.5,226.9c.23.28.84.29.84.29a1.39,1.39,0,0,0-.13-.89.49.49,0,0,0-.71-.12A.47.47,0,0,0,241.5,226.9Z"/><path class="cls-21" d="M291.23,283.82a17.48,17.48,0,0,0-5.06,4.51l-.83-.84a18.53,18.53,0,0,1,4.5-5.06Z"/><path class="cls-31" d="M292,296.27c.25-3.15-.32-5.77-1.46-6.91-1-1-2.51-2.3-4.55-1.77.53-2-.8-3.58-1.77-4.55-2.68-2.67-13.45-2.24-20.33,4.64a21.63,21.63,0,0,0-5.22,8.59Z"/><path class="cls-32" d="M292,296.27c.25-3.15-.32-5.77-1.46-6.91a7.26,7.26,0,0,0-2.23-1.6,28.56,28.56,0,0,1-1.78,8.51Z"/><path class="cls-33" d="M275.24,296.27a44,44,0,0,1,12.16-8.79c-4.09.67-9.11,3.45-13.52,7.86-.3.31-.58.62-.87.93Z"/><path class="cls-34" d="M270.32,296.27a3.75,3.75,0,1,0-6.47,0Z"/><path class="cls-9" d="M210.15,296.27H235a26.21,26.21,0,0,0,6-7.75c2.17-4.23.64-5.35-2.83-2.9a29.57,29.57,0,0,1-14.87,5.22,29.1,29.1,0,0,1-15.37-3c-3.74-1.93-5.12-.59-2.44,3.28A25.55,25.55,0,0,0,210.15,296.27Z"/><path class="cls-35" d="M210.15,296.27h7.43c-5.13-1.35-9.81-4.65-13.48-8.4a6.05,6.05,0,0,0,1.39,3.22A25.55,25.55,0,0,0,210.15,296.27Z"/><path class="cls-35" d="M235,296.27a26.21,26.21,0,0,0,6-7.75c.8-1.57,1.66-3.52.73-4.09-3.75,5-8.79,10.09-14.79,11.84Z"/><path class="cls-9" d="M240.38,296.27a28.9,28.9,0,0,0,2.17-7.41c.72-4.79-1.06-5.27-3.56-1.67a31.92,31.92,0,0,1-9.8,9.08Z"/><path class="cls-35" d="M240.38,296.27a28.9,28.9,0,0,0,2.17-7.41c.27-1.77.47-3.93-.59-4.12a44.22,44.22,0,0,1-5.41,11.53Z"/><path class="cls-9" d="M244.37,296.27a29.67,29.67,0,0,0-.06-7c-.62-4.8-2.46-4.68-3.86-.43a34,34,0,0,1-3.5,7.41Z"/><path class="cls-35" d="M244.37,296.27a29.67,29.67,0,0,0-.06-7c-.23-1.78-.63-3.9-1.69-3.74a49.92,49.92,0,0,1-1.41,10.72Z"/><path class="cls-9" d="M243,286.15l-1.8,1.43s.07-2.38.21-3.15a11.18,11.18,0,0,1,1.15-2.65s.41-.76,1.94.3,1,1.67,1,1.67Z"/><path class="cls-35" d="M243.72,286.54c-.06.3-1.15.19-1.14-.09a5.9,5.9,0,0,1,1.08-3.29c1.12.95,1.79.59,1.79.59A5.74,5.74,0,0,0,243.72,286.54Z"/><path class="cls-36" d="M223.53,293.46a1.53,1.53,0,1,1-1.53-1.53A1.54,1.54,0,0,1,223.53,293.46Z"/><path class="cls-37" d="M297.72,218.17H252a1.32,1.32,0,0,0-1.33,1.33v76.63a1.32,1.32,0,0,0,1.33,1.33h45.77a1.33,1.33,0,0,0,1.33-1.33V219.5A1.33,1.33,0,0,0,297.72,218.17Zm-1.33,76.63H253.28v-74h43.11Z"/><path class="cls-7" d="M297.72,219H252a.53.53,0,0,0-.53.54v76.63a.53.53,0,0,0,.53.54h45.77a.54.54,0,0,0,.53-.54V219.5A.54.54,0,0,0,297.72,219Zm-.53,76.65H252.48V220h44.71Z"/><path class="cls-37" d="M247.68,218.17H201.91a1.33,1.33,0,0,0-1.33,1.33v76.63a1.33,1.33,0,0,0,1.33,1.33h45.77a1.33,1.33,0,0,0,1.34-1.33V219.5A1.33,1.33,0,0,0,247.68,218.17Zm-1.32,76.63H203.25v-74h43.11Z"/><path class="cls-7" d="M247.68,219H201.91a.54.54,0,0,0-.53.54v76.63a.54.54,0,0,0,.53.54h45.77a.54.54,0,0,0,.54-.54V219.5A.54.54,0,0,0,247.68,219Zm-.53,76.65h-44.7V220h44.7Z"/><path class="cls-37" d="M197.72,218.17H152a1.33,1.33,0,0,0-1.33,1.33v76.63a1.33,1.33,0,0,0,1.33,1.33h45.77a1.32,1.32,0,0,0,1.33-1.33V219.5A1.32,1.32,0,0,0,197.72,218.17ZM196.4,294.8H153.29v-74H196.4Z"/><path class="cls-7" d="M197.72,219H152a.54.54,0,0,0-.53.54v76.63a.54.54,0,0,0,.53.54h45.77a.54.54,0,0,0,.54-.54V219.5A.54.54,0,0,0,197.72,219Zm-.53,76.65h-44.7V220h44.7Z"/><path class="cls-37" d="M315,313.83H134.71a1.47,1.47,0,0,1-1.47-1.48V201.66a1.47,1.47,0,0,1,1.47-1.48H315a1.48,1.48,0,0,1,1.48,1.48V312.35A1.48,1.48,0,0,1,315,313.83Zm-178.76-3H313.48V203.14H136.2Z"/><path class="cls-7" d="M315,312.88H134.71a.53.53,0,0,1-.53-.53V201.66a.53.53,0,0,1,.53-.53H315a.53.53,0,0,1,.53.53V312.35A.53.53,0,0,1,315,312.88Zm-179.71-1.06H314.43V202.19H135.25Z"/><path class="cls-7" d="M154.9,400.79a14.37,14.37,0,0,0,14.38,14.37H281.72a14.37,14.37,0,0,0,14.37-14.37Z"/><path class="cls-6" d="M154.9,400.79c0,4,6.44,7.19,14.38,7.19H281.72c7.94,0,14.37-3.22,14.37-7.19Z"/><path class="cls-6" d="M131.33,166.21h-.83a3.82,3.82,0,1,1,0-7.63h.83a3.82,3.82,0,1,1,0,7.63Z"/><path class="cls-6" d="M95,185.86A3.82,3.82,0,0,1,91.18,182V162.39A3.82,3.82,0,0,1,95,158.58h9.48a3.82,3.82,0,1,1,0,7.63H98.82V182A3.82,3.82,0,0,1,95,185.86Z"/><path class="cls-6" d="M119,166.21h-3.46a3.82,3.82,0,1,1,0-7.63H119a3.82,3.82,0,0,1,0,7.63Z"/><path class="cls-6" d="M95,223.61a3.82,3.82,0,0,1-3.82-3.82V194.06a3.82,3.82,0,0,1,7.64,0v25.73A3.82,3.82,0,0,1,95,223.61Z"/><rect class="cls-7" x="390.58" y="253.36" width="17.3" height="32.87"/><rect class="cls-6" x="390.58" y="263.12" width="14.88" height="13.35"/><rect class="cls-7" x="394.65" y="176.45" width="9.16" height="79.44"/><path class="cls-6" d="M401.09,176.45h-3.72v79.43h0a1.86,1.86,0,1,0,3.72,0h0Z"/><path class="cls-29" d="M409.67,166a14.76,14.76,0,1,1-20.88,0A14.74,14.74,0,0,1,409.67,166Z"/><path class="cls-28" d="M402.52,166a9.71,9.71,0,1,1-13.73,0A9.71,9.71,0,0,1,402.52,166Z"/><path class="cls-38" d="M397.58,167.93a4.85,4.85,0,1,1-6.87,0A4.86,4.86,0,0,1,397.58,167.93Z"/></svg>